<?xml version="1.0" encoding="utf-8"?>
<!-- Generator: Adobe Illustrator 22.0.1, SVG Export Plug-In . SVG Version: 6.00 Build 0)  -->
<svg version="1.1" id="Layer_1" xmlns="http://www.w3.org/2000/svg" xmlns:xlink="http://www.w3.org/1999/xlink" x="0px" y="0px"
	 viewBox="0 0 405.5 215.1" style="enable-background:new 0 0 405.5 215.1;" xml:space="preserve">
<style type="text/css">
	.st0{fill:none;}
	.st1{fill:#FFFFFF;}
	.st2{fill:#B3B3B3;}
	.st3{fill:#666666;}
	.st4{fill:#FF0000;}
	.st5{fill:#1C7BC9;}
	.st6{fill:#FFFF00;}
	.st7{fill:#2BD62B;}
</style>
<g id="Layer_x0020_1">
	<g id="_39360447760">
		<rect x="0" class="st0" width="405.5" height="215.1"/>
		
			<rect x="227" y="26.2" transform="matrix(0.7071 -0.7071 0.7071 0.7071 36.6787 195.7305)" class="st1" width="55.3" height="54.8"/>
		<path d="M256,13.4l38.7,38.7c0.7,0.7,0.7,1.8,0,2.5l-39.1,39.1c-0.7,0.7-1.8,0.7-2.5,0L214.5,55c-0.7-0.7-0.7-1.8,0-2.5l39.1-39.1
			C254.2,12.8,255.4,12.8,256,13.4L256,13.4z M291,53.4l-36.3-36.3l-36.6,36.6L254.4,90L291,53.4z"/>
		
			<rect x="172.8" y="80.4" transform="matrix(0.7071 -0.7071 0.7071 0.7071 -17.4911 173.2928)" class="st1" width="55.3" height="54.8"/>
		<path d="M164,108l36.3,36.3l36.6-36.6l-36.3-36.3C200.6,71.3,164,108,164,108z M199,147.9l-38.7-38.7c-0.7-0.7-0.7-1.8,0-2.5
			l39.1-39.1c0.7-0.7,1.8-0.7,2.5,0l38.7,38.7c0.7,0.7,0.7,1.8,0,2.5l-39.1,39.1C200.8,148.6,199.7,148.6,199,147.9z"/>
		
			<rect x="280.7" y="80" transform="matrix(0.7071 -0.7071 0.7071 0.7071 14.3999 249.5172)" class="st1" width="55.3" height="54.8"/>
		<path d="M309.8,67.2l38.7,38.7c0.7,0.7,0.7,1.8,0,2.5l-39.1,39.1c-0.7,0.7-1.8,0.7-2.5,0l-38.7-38.7c-0.7-0.7-0.7-1.8,0-2.5
			l39.1-39.1C308,66.5,309.1,66.5,309.8,67.2z M344.8,107.2l-36.3-36.3L272,107.6l36.3,36.3L344.8,107.2z"/>
		
			<rect x="226.6" y="134.2" transform="matrix(0.7071 -0.7071 0.7071 0.7071 -39.7701 227.0789)" class="st1" width="55.3" height="54.8"/>
		<path d="M217.8,161.7L254,198l36.6-36.6l-36.3-36.3L217.8,161.7z M252.8,201.7L214.1,163c-0.7-0.7-0.7-1.8,0-2.5l39.1-39.1
			c0.7-0.7,1.8-0.7,2.5,0l38.7,38.7c0.7,0.7,0.7,1.8,0,2.5l-39.1,39.1C254.6,202.4,253.5,202.4,252.8,201.7L252.8,201.7z"/>
		<path class="st2" d="M29.5,155.1c0.6,0.7,0.9,1.6,0.9,2.5c0,1.1-0.4,2-1.1,2.7s-1.6,1.1-2.6,1.1h-4.2c-0.7,0-1.2-0.2-1.3-0.6
			c-0.1-0.2-0.1-0.5-0.1-0.8v-8.9c0-0.3,0-0.4,0-0.6c0-0.1,0.1-0.3,0.2-0.4c0.1-0.3,0.6-0.4,1.2-0.4h4c1,0,1.8,0.3,2.5,1
			c0.7,0.7,1,1.5,1,2.5C30.1,153.9,29.9,154.5,29.5,155.1L29.5,155.1z M27.6,157.5c0-0.3,0-0.5-0.1-0.6c-0.1-0.1-0.2-0.3-0.3-0.3
			c-0.2-0.1-0.5-0.1-0.9-0.1c-0.4,0-0.7-0.1-0.9-0.2c-0.2-0.1-0.3-0.5-0.3-0.9c0-0.5,0.1-0.8,0.3-0.9c0.2-0.1,0.5-0.2,1-0.2
			c0.4,0,0.7-0.1,0.8-0.3c0-0.1,0-0.3,0-0.6c0-0.3-0.1-0.5-0.3-0.6c-0.2-0.1-0.4-0.2-0.8-0.2H24v6.1h2.6
			C27.3,158.5,27.6,158.2,27.6,157.5L27.6,157.5z M37,153.9c0.1-0.6,0.5-0.9,1.3-0.9c0.4,0,0.7,0,0.9,0.1c0.2,0.1,0.3,0.2,0.4,0.3
			c0.1,0.2,0.1,0.3,0.1,0.4c0,0.1,0,0.3,0,0.6v5.6c0,0.2,0,0.4,0,0.6c0,0.1-0.1,0.3-0.1,0.4c-0.1,0.3-0.5,0.4-1.1,0.4
			c-0.6,0-1-0.1-1.2-0.2s-0.3-0.4-0.3-0.6c-0.4,0.6-1.1,0.8-2,0.8c-0.9,0-1.8-0.4-2.6-1.3c-0.8-0.8-1.2-1.8-1.2-2.9s0.4-2.1,1.2-2.9
			c0.8-0.8,1.7-1.3,2.6-1.3c0.4,0,0.7,0.1,1,0.2c0.3,0.1,0.5,0.2,0.6,0.4C36.8,153.6,36.9,153.8,37,153.9L37,153.9z M34.1,157.2
			c0,0.4,0.1,0.7,0.4,1c0.3,0.3,0.6,0.4,1,0.4c0.4,0,0.7-0.1,1-0.4c0.3-0.3,0.4-0.6,0.4-1c0-0.3-0.1-0.7-0.4-1
			c-0.3-0.3-0.6-0.4-1-0.4s-0.8,0.1-1,0.4S34.1,156.8,34.1,157.2L34.1,157.2z M41.1,160.6c-0.2-0.1-0.3-0.3-0.3-0.6
			c0-0.3,0.2-0.7,0.6-1.3c0.1-0.2,0.3-0.3,0.6-0.3s0.6,0.1,1.1,0.4c0.4,0.3,0.9,0.4,1.2,0.4c0.7,0,1-0.1,1-0.4
			c0-0.2-0.4-0.4-1.1-0.4c-0.7-0.1-1.3-0.3-2-0.8c-0.3-0.2-0.6-0.5-0.8-0.9c-0.2-0.4-0.3-0.9-0.3-1.5c0-1.7,1.2-2.5,3.5-2.5
			c0.8,0,1.5,0.2,2.3,0.5c0.4,0.2,0.6,0.4,0.6,0.6c0,0.3-0.1,0.6-0.4,0.9c-0.2,0.4-0.5,0.6-0.7,0.6c-0.1,0-0.4-0.1-0.7-0.2
			c-0.3-0.2-0.7-0.2-1.1-0.2c-0.6,0-0.9,0.1-0.9,0.4c0,0.3,0.4,0.5,1.1,0.6c0.7,0.1,1.4,0.3,2,0.6c0.3,0.1,0.6,0.4,0.8,0.8
			c0.2,0.4,0.3,0.8,0.3,1.4s-0.1,1-0.3,1.4c-0.2,0.4-0.5,0.7-0.9,0.9c-0.7,0.3-1.5,0.5-2.6,0.5C43,161.5,42,161.2,41.1,160.6
			L41.1,160.6z M48.9,154.4c0-0.2,0-0.4,0-0.6c0-0.1,0.1-0.3,0.1-0.4c0.1-0.3,0.6-0.4,1.2-0.4c0.5,0,0.9,0.1,1.1,0.3
			c0.2,0.1,0.3,0.4,0.3,0.7c0,0.1,0,0.3,0,0.5v5.6c0,0.2,0,0.4,0,0.6c0,0.1-0.1,0.3-0.2,0.4c-0.1,0.3-0.5,0.4-1.2,0.4
			c-0.7,0-1.1-0.1-1.2-0.4c-0.1-0.2-0.1-0.3-0.1-0.4c0-0.1,0-0.3,0-0.6V154.4z M51.5,151.4c-0.1,0.2-0.2,0.3-0.4,0.3
			c-0.2,0.1-0.5,0.1-0.8,0.1c-0.3,0-0.6,0-0.8-0.1c-0.2-0.1-0.3-0.2-0.4-0.3c-0.1-0.2-0.1-0.3-0.1-0.4c0-0.1,0-0.3,0-0.6
			s0-0.4,0-0.6c0-0.1,0.1-0.3,0.1-0.4c0.1-0.3,0.6-0.4,1.2-0.4c0.7,0,1.1,0.1,1.2,0.4c0.1,0.2,0.1,0.3,0.2,0.4c0,0.1,0,0.3,0,0.6
			s0,0.4,0,0.6C51.6,151.1,51.6,151.2,51.5,151.4L51.5,151.4z M55.6,157.2c0,0.5,0.1,0.8,0.4,1.1c0.3,0.3,0.6,0.4,1,0.4
			c0.3,0,0.7-0.1,0.9-0.3s0.5-0.3,0.7-0.3c0.3,0,0.7,0.3,1.2,0.8c0.2,0.3,0.4,0.6,0.4,0.8c0,0.4-0.3,0.8-0.9,1.1
			c-0.6,0.4-1.4,0.6-2.2,0.6c-1,0-1.9-0.4-2.9-1.1c-0.4-0.3-0.8-0.8-1.1-1.4c-0.3-0.6-0.4-1.2-0.4-1.9c0-0.7,0.1-1.3,0.4-1.9
			c0.3-0.6,0.6-1,1.1-1.4c0.9-0.7,1.8-1.1,2.8-1.1c0.4,0,0.8,0.1,1.2,0.2c0.4,0.1,0.7,0.2,0.8,0.3l0.3,0.2c0.2,0.1,0.3,0.2,0.4,0.3
			c0.3,0.2,0.4,0.5,0.4,0.7c0,0.3-0.1,0.6-0.3,0.9c-0.4,0.6-0.8,0.9-1.1,0.9c-0.2,0-0.5-0.1-0.9-0.4c-0.2-0.2-0.5-0.3-0.8-0.3
			c-0.4,0-0.7,0.1-1,0.4C55.7,156.4,55.6,156.7,55.6,157.2L55.6,157.2z M72.6,158.3l0.3-0.2c0.4-0.2,0.6-0.3,0.8-0.3
			c0.3,0,0.7,0.3,1.1,0.9c0.2,0.4,0.4,0.7,0.4,0.9c0,0.2-0.1,0.4-0.2,0.6c-0.1,0.1-0.3,0.3-0.5,0.4c-0.2,0.1-0.4,0.2-0.6,0.3
			c-0.2,0.1-0.5,0.2-1.1,0.4c-0.5,0.2-1.1,0.3-1.6,0.3s-1-0.1-1.5-0.2c-0.5-0.1-1.1-0.4-1.6-0.7c-0.5-0.3-1-0.7-1.5-1.2
			c-0.4-0.5-0.8-1-1.1-1.7c-0.3-0.7-0.4-1.5-0.4-2.3c0-0.8,0.1-1.6,0.4-2.3c0.3-0.7,0.6-1.2,1.1-1.7c0.4-0.4,0.9-0.8,1.5-1.1
			c1-0.6,2.1-0.9,3.2-0.9c0.5,0,1,0.1,1.5,0.2c0.5,0.2,0.9,0.3,1.2,0.5l0.4,0.2c0.2,0.1,0.3,0.2,0.4,0.3c0.3,0.2,0.4,0.5,0.4,0.8
			c0,0.3-0.1,0.6-0.3,0.9c-0.4,0.6-0.8,0.9-1.1,0.9c-0.2,0-0.5-0.1-0.8-0.4c-0.4-0.4-1-0.5-1.8-0.5c-0.7,0-1.4,0.2-2,0.7
			c-0.3,0.2-0.6,0.6-0.8,1c-0.2,0.4-0.3,0.9-0.3,1.4c0,0.5,0.1,1,0.3,1.4c0.2,0.4,0.5,0.8,0.8,1c0.7,0.5,1.3,0.7,2,0.7
			c0.3,0,0.6,0,0.9-0.1C72.2,158.5,72.5,158.4,72.6,158.3L72.6,158.3z M75.9,157.2c0-1.3,0.4-2.3,1.3-3.2c0.9-0.8,1.9-1.2,3.1-1.2
			s2.2,0.4,3.1,1.2c0.9,0.8,1.3,1.9,1.3,3.2c0,0.9-0.2,1.7-0.7,2.4c-0.5,0.7-1,1.2-1.7,1.5c-0.7,0.3-1.3,0.5-2,0.5
			c-0.7,0-1.4-0.2-2-0.5c-0.7-0.3-1.2-0.9-1.7-1.5C76.1,158.8,75.9,158,75.9,157.2L75.9,157.2z M79.2,158.3c0.3,0.3,0.7,0.4,1,0.4
			c0.4,0,0.7-0.1,1.1-0.4c0.4-0.3,0.5-0.7,0.5-1.2c0-0.5-0.2-0.9-0.5-1.2c-0.3-0.3-0.7-0.4-1.1-0.4c-0.4,0-0.7,0.1-1.1,0.4
			c-0.3,0.3-0.5,0.7-0.5,1.2C78.7,157.7,78.9,158.1,79.2,158.3L79.2,158.3z M85.7,150.4c0-0.2,0-0.4,0-0.6c0-0.1,0.1-0.3,0.1-0.4
			c0.1-0.3,0.6-0.4,1.2-0.4c0.7,0,1.1,0.1,1.2,0.4c0.1,0.2,0.1,0.3,0.2,0.4c0,0.1,0,0.3,0,0.6v7.4c0,0.4,0,0.6,0.1,0.7
			c0.1,0.1,0.2,0.2,0.4,0.2c0.2,0,0.4,0,0.4,0c0.1,0,0.2,0.1,0.3,0.1c0.2,0.1,0.3,0.5,0.3,1.1c0,0.7-0.1,1.1-0.3,1.2
			c-0.3,0.2-0.9,0.2-2,0.1c-0.8-0.1-1.4-0.4-1.6-0.8c-0.3-0.5-0.4-1.4-0.4-2.5L85.7,150.4L85.7,150.4z M90.7,157.2
			c0-1.3,0.4-2.3,1.3-3.2c0.9-0.8,1.9-1.2,3.1-1.2s2.2,0.4,3.1,1.2c0.9,0.8,1.3,1.9,1.3,3.2c0,0.9-0.2,1.7-0.7,2.4
			c-0.5,0.7-1,1.2-1.7,1.5c-0.7,0.3-1.3,0.5-2,0.5c-0.7,0-1.4-0.2-2-0.5c-0.7-0.3-1.2-0.9-1.7-1.5C90.9,158.8,90.7,158,90.7,157.2
			L90.7,157.2z M94.1,158.3c0.3,0.3,0.7,0.4,1,0.4c0.4,0,0.7-0.1,1.1-0.4c0.4-0.3,0.5-0.7,0.5-1.2c0-0.5-0.2-0.9-0.5-1.2
			c-0.3-0.3-0.7-0.4-1.1-0.4s-0.7,0.1-1.1,0.4c-0.3,0.3-0.5,0.7-0.5,1.2C93.5,157.7,93.7,158.1,94.1,158.3L94.1,158.3z M106.3,153.1
			c0.2,0.1,0.4,0.2,0.5,0.3c0.1,0.2,0.2,0.4,0.2,0.7s-0.1,0.7-0.3,1.1c-0.2,0.4-0.5,0.6-0.9,0.6c-0.2,0-0.4,0-0.6-0.1
			c-0.2-0.1-0.4-0.1-0.7-0.1c-0.3,0-0.6,0.1-0.8,0.3c-0.3,0.2-0.4,0.4-0.4,0.7v3.4c0,0.2,0,0.4,0,0.6c0,0.1-0.1,0.3-0.2,0.4
			c-0.2,0.3-0.6,0.4-1.2,0.4c-0.5,0-0.9-0.1-1.1-0.3c-0.2-0.1-0.3-0.4-0.3-0.7c0-0.1,0-0.3,0-0.5v-5.6c0-0.2,0-0.4,0-0.6
			c0-0.1,0.1-0.3,0.1-0.4c0.1-0.3,0.6-0.4,1.2-0.4c0.6,0,1,0.1,1.2,0.4c0.1,0.2,0.2,0.3,0.2,0.5c0.1-0.1,0.1-0.2,0.2-0.3
			c0.1-0.1,0.3-0.3,0.6-0.4s0.6-0.3,0.9-0.3s0.5,0,0.6,0C105.9,152.9,106.1,153,106.3,153.1L106.3,153.1z M107.6,160.6
			c-0.2-0.1-0.3-0.3-0.3-0.6c0-0.3,0.2-0.7,0.6-1.3c0.1-0.2,0.3-0.3,0.6-0.3s0.6,0.1,1.1,0.4c0.4,0.3,0.9,0.4,1.2,0.4
			c0.7,0,1-0.1,1-0.4c0-0.2-0.4-0.4-1.1-0.4c-0.7-0.1-1.3-0.3-2-0.8c-0.3-0.2-0.6-0.5-0.8-0.9c-0.2-0.4-0.3-0.9-0.3-1.5
			c0-1.7,1.2-2.5,3.5-2.5c0.8,0,1.5,0.2,2.3,0.5c0.4,0.2,0.6,0.4,0.6,0.6s-0.1,0.6-0.4,0.9c-0.2,0.4-0.5,0.6-0.7,0.6
			c-0.1,0-0.4-0.1-0.7-0.2c-0.3-0.2-0.7-0.2-1.1-0.2c-0.6,0-0.9,0.1-0.9,0.4c0,0.3,0.4,0.5,1.1,0.6c0.7,0.1,1.4,0.3,2,0.6
			c0.3,0.1,0.6,0.4,0.8,0.8c0.2,0.4,0.3,0.8,0.3,1.4s-0.1,1-0.3,1.4c-0.2,0.4-0.5,0.7-0.9,0.9c-0.7,0.3-1.5,0.5-2.6,0.5
			S108.6,161.2,107.6,160.6L107.6,160.6z"/>
		<path class="st3" d="M111.3,167.3c-24.8-1.6-59,0.5-87.1,6.4v0.8c28.1-5.1,62.3-6.1,87.1-3.7V167.3z"/>
		
			<rect x="53.9" y="25.1" transform="matrix(0.7071 -0.7071 0.7071 0.7071 -7.647 59.3676)" class="st4" width="27.9" height="27.6"/>
		<path d="M68.3,19l19.5,19.5c0.2,0.2,0.2,0.5,0,0.7L68.1,58.9c-0.2,0.2-0.5,0.2-0.7,0L47.9,39.4c-0.2-0.2-0.2-0.5,0-0.7L67.6,19
			C67.8,18.8,68.1,18.8,68.3,19z M86.7,38.8L67.9,20l-19,19l18.8,18.8L86.7,38.8z"/>
		
			<rect x="26.6" y="52.4" transform="matrix(0.7071 -0.7071 0.7071 0.7071 -34.937 48.0637)" class="st5" width="27.9" height="27.6"/>
		<path d="M21.7,66.3l18.8,18.8l19-19L40.6,47.3L21.7,66.3L21.7,66.3z M40.1,86.2L20.6,66.7c-0.2-0.2-0.2-0.5,0-0.7l19.7-19.7
			c0.2-0.2,0.5-0.2,0.7,0l19.5,19.5c0.2,0.2,0.2,0.5,0,0.7L40.8,86.2C40.6,86.4,40.3,86.4,40.1,86.2L40.1,86.2z"/>
		
			<rect x="81" y="52.2" transform="matrix(0.7071 -0.7071 0.7071 0.7071 -18.8709 86.4643)" class="st6" width="27.9" height="27.6"/>
		<path d="M95.4,46.1l19.5,19.5c0.2,0.2,0.2,0.5,0,0.7L95.2,86c-0.2,0.2-0.5,0.2-0.7,0L75,66.5c-0.2-0.2-0.2-0.5,0-0.7l19.7-19.7
			C94.9,45.9,95.2,45.9,95.4,46.1L95.4,46.1z M113.8,65.9L95,47.1l-19,19l18.8,18.8L113.8,65.9L113.8,65.9z"/>
		
			<rect x="53.7" y="79.5" transform="matrix(0.7071 -0.7071 0.7071 0.7071 -46.1607 75.1604)" class="st7" width="27.9" height="27.6"/>
		<path d="M48.7,93.4l18.8,18.8l19-19L67.7,74.4L48.7,93.4z M67.2,113.3L47.7,93.8c-0.2-0.2-0.2-0.5,0-0.7l19.7-19.7
			c0.2-0.2,0.5-0.2,0.7,0l19.5,19.5c0.2,0.2,0.2,0.5,0,0.7l-19.7,19.7C67.7,113.5,67.4,113.5,67.2,113.3z"/>
	</g>
</g>
</svg>
